<svg width="101" height="18" viewBox="0 0 101 18" fill="none" xmlns="http://www.w3.org/2000/svg">
<path d="M0.880281 13.448C0.880281 12.584 1.12028 11.832 1.60028 11.192C2.08028 10.552 2.70428 10.064 3.47228 9.728C4.08028 9.456 4.79228 9.184 5.60828 8.912C6.42428 8.64 7.05628 8.352 7.50428 8.048C7.95228 7.744 8.17628 7.384 8.17628 6.968V4.976C8.17628 4.48 7.97628 4.152 7.57628 3.992C7.14428 3.816 6.47228 3.728 5.56028 3.728C4.45628 3.728 3.00028 3.928 1.19228 4.328V1.688C2.79228 1.352 4.46428 1.184 6.20828 1.184C8.09628 1.184 9.49628 1.472 10.4083 2.048C11.3363 2.624 11.8003 3.584 11.8003 4.928V7.088C11.8003 7.904 11.5523 8.616 11.0563 9.224C10.5763 9.816 9.95228 10.264 9.18428 10.568C8.46428 10.872 7.72828 11.144 6.97628 11.384C6.16028 11.672 5.51228 11.992 5.03228 12.344C4.56828 12.696 4.33628 13.112 4.33628 13.592V14.384H11.8243V17H0.880281V13.448ZM20.3462 17.24C19.6262 17.24 19.0422 17.216 18.5942 17.168C18.1462 17.12 17.6742 17.016 17.1782 16.856C16.6342 16.68 16.2022 16.448 15.8822 16.16C15.5622 15.872 15.2902 15.456 15.0662 14.912C14.8422 14.336 14.7302 13.68 14.7302 12.944V5.696C14.7302 4.928 14.8582 4.248 15.1142 3.656C15.3862 3.048 15.7302 2.584 16.1462 2.264C16.4982 1.992 16.9702 1.768 17.5622 1.592C18.1542 1.4 18.7302 1.28 19.2902 1.232C19.8982 1.2 20.4502 1.184 20.9462 1.184C21.6342 1.184 23.0742 1.264 25.2662 1.424V3.992C23.1062 3.736 21.5622 3.608 20.6342 3.608C19.8662 3.608 19.3222 3.648 19.0022 3.728C18.6822 3.808 18.4662 3.968 18.3542 4.208C18.2582 4.432 18.2102 4.84 18.2102 5.432V7.28H20.7782C21.6422 7.28 22.2662 7.296 22.6502 7.328C23.0342 7.344 23.4662 7.416 23.9462 7.544C24.4582 7.672 24.8342 7.856 25.0742 8.096C25.3302 8.32 25.5542 8.664 25.7462 9.128C25.9222 9.608 26.0102 10.176 26.0102 10.832V12.944C26.0102 13.68 25.8982 14.328 25.6742 14.888C25.4502 15.432 25.1622 15.856 24.8102 16.16C24.4902 16.448 24.0662 16.68 23.5382 16.856C23.0262 17.032 22.5142 17.136 22.0022 17.168C21.5542 17.216 21.0022 17.24 20.3462 17.24ZM20.3942 14.912C21.0982 14.912 21.5862 14.872 21.8582 14.792C22.1462 14.712 22.3302 14.56 22.4102 14.336C22.4902 14.096 22.5302 13.688 22.5302 13.112V10.856C22.5302 10.472 22.4822 10.2 22.3862 10.04C22.2902 9.864 22.0902 9.744 21.7862 9.68C21.4982 9.616 21.0262 9.584 20.3702 9.584H18.2102V13.136C18.2102 13.68 18.2502 14.072 18.3302 14.312C18.4262 14.552 18.6182 14.712 18.9062 14.792C19.2102 14.872 19.7062 14.912 20.3942 14.912ZM34.052 17.24C32.564 17.24 30.724 17.096 28.532 16.808V13.952C31.252 14.368 33.108 14.576 34.1 14.576C36.18 14.576 37.22 14.04 37.22 12.968V11.96C37.22 11.448 37.068 11.056 36.764 10.784C36.476 10.512 35.948 10.376 35.18 10.376H33.356C29.932 10.376 28.22 9.016 28.22 6.296V5.144C28.22 3.784 28.788 2.784 29.924 2.144C31.06 1.504 32.86 1.184 35.324 1.184C36.604 1.184 38.228 1.288 40.196 1.496V4.28C37.78 3.992 36.116 3.848 35.204 3.848C33.94 3.848 33.092 3.952 32.66 4.16C32.196 4.384 31.964 4.736 31.964 5.216V6.32C31.964 7.136 32.652 7.544 34.028 7.544H35.9C37.676 7.544 38.964 7.872 39.764 8.528C40.564 9.184 40.964 10.184 40.964 11.528V12.56C40.964 14.416 40.3 15.672 38.972 16.328C38.332 16.664 37.62 16.896 36.836 17.024C36.068 17.168 35.14 17.24 34.052 17.24ZM49.2307 17.24C48.6387 17.24 48.1427 17.216 47.7427 17.168C47.3427 17.12 46.9427 17.024 46.5427 16.88C46.0947 16.736 45.7267 16.536 45.4387 16.28C45.1667 16.024 44.9427 15.672 44.7667 15.224C44.5747 14.76 44.4787 14.224 44.4787 13.616V7.544H42.1267V5.384H44.4787V2.024H47.9827V5.384H51.1747V7.544H47.9827V13.016C47.9827 13.576 48.0307 14 48.1267 14.288C48.2227 14.56 48.4067 14.76 48.6787 14.888C48.9507 15 49.3667 15.056 49.9267 15.056C50.1507 15.056 50.5667 15.016 51.1747 14.936V17.12C50.4227 17.2 49.7747 17.24 49.2307 17.24ZM57.2282 17.24C55.7402 17.24 54.6922 16.976 54.0842 16.448C53.4922 15.904 53.1962 15.056 53.1962 13.904V5.384H56.7002V13.424C56.7002 13.872 56.7402 14.208 56.8202 14.432C56.9162 14.656 57.0922 14.816 57.3482 14.912C57.6202 15.008 58.0282 15.056 58.5722 15.056C59.2602 15.056 59.7642 15.016 60.0842 14.936C60.4042 14.84 60.6202 14.68 60.7322 14.456C60.8442 14.232 60.9002 13.888 60.9002 13.424V5.384H64.4042V17H60.9482V15.584C60.6922 16.688 59.4522 17.24 57.2282 17.24ZM71.9336 17.24C70.5576 17.24 69.5416 17.144 68.8856 16.952C68.2296 16.744 67.7736 16.36 67.5176 15.8C67.2616 15.24 67.1336 14.368 67.1336 13.184V8.648C67.1336 7.368 67.4936 6.464 68.2136 5.936C68.9496 5.408 70.1336 5.144 71.7656 5.144C72.5336 5.144 73.1336 5.192 73.5656 5.288C74.0136 5.368 74.3736 5.52 74.6456 5.744C74.9176 5.952 75.1976 6.264 75.4856 6.68V0.199999H78.9896V17H75.6056V15.68C75.3176 16.144 75.0536 16.472 74.8136 16.664C74.5896 16.84 74.2696 16.976 73.8536 17.072C73.4216 17.184 72.7816 17.24 71.9336 17.24ZM72.8216 15.056C73.6056 15.056 74.1816 15.016 74.5496 14.936C74.9176 14.856 75.1656 14.712 75.2936 14.504C75.4216 14.28 75.4856 13.952 75.4856 13.52V8.84C75.4856 8.44 75.4136 8.136 75.2696 7.928C75.1416 7.704 74.9016 7.544 74.5496 7.448C74.2136 7.352 73.7016 7.304 73.0136 7.304C72.2776 7.304 71.7496 7.352 71.4296 7.448C71.1096 7.528 70.8936 7.68 70.7816 7.904C70.6856 8.112 70.6376 8.464 70.6376 8.96V13.4C70.6376 13.848 70.6856 14.192 70.7816 14.432C70.8936 14.656 71.1016 14.816 71.4056 14.912C71.7096 15.008 72.1816 15.056 72.8216 15.056ZM82.1672 1.184H85.6712V4.016H82.1672V1.184ZM82.1672 5.384H85.6712V17H82.1672V5.384ZM94.4126 17.24C93.6926 17.24 93.1006 17.216 92.6366 17.168C92.1726 17.12 91.6766 17.024 91.1486 16.88C90.5726 16.72 90.1086 16.496 89.7566 16.208C89.4046 15.904 89.1086 15.48 88.8686 14.936C88.6286 14.408 88.5086 13.768 88.5086 13.016V9.584C88.5086 8.816 88.6286 8.144 88.8686 7.568C89.1086 6.992 89.4206 6.544 89.8046 6.224C90.1406 5.952 90.5806 5.728 91.1246 5.552C91.6846 5.36 92.2286 5.24 92.7566 5.192C93.3646 5.16 93.9166 5.144 94.4126 5.144C95.1486 5.144 95.7326 5.168 96.1646 5.216C96.6126 5.248 97.1006 5.344 97.6286 5.504C98.2046 5.68 98.6686 5.92 99.0206 6.224C99.3886 6.528 99.7006 6.96 99.9566 7.52C100.197 8.096 100.317 8.784 100.317 9.584V13.016C100.317 13.736 100.197 14.368 99.9566 14.912C99.7326 15.456 99.4366 15.88 99.0686 16.184C98.7486 16.456 98.3086 16.68 97.7486 16.856C97.2046 17.016 96.6686 17.12 96.1406 17.168C95.6606 17.216 95.0846 17.24 94.4126 17.24ZM94.4126 15.056C95.0686 15.056 95.5646 15.008 95.9006 14.912C96.2366 14.8 96.4686 14.632 96.5966 14.408C96.7406 14.184 96.8126 13.856 96.8126 13.424V9.032C96.8126 8.392 96.6446 7.944 96.3086 7.688C95.9726 7.432 95.3406 7.304 94.4126 7.304C93.4846 7.304 92.8526 7.432 92.5166 7.688C92.1806 7.944 92.0126 8.392 92.0126 9.032V13.424C92.0126 13.856 92.0766 14.184 92.2046 14.408C92.3486 14.632 92.5886 14.8 92.9246 14.912C93.2606 15.008 93.7566 15.056 94.4126 15.056Z" fill="white"/>
</svg>
